<?xml version="1.0" encoding="UTF-8" standalone="no"?>
<svg xmlns:dc="http://purl.org/dc/elements/1.1/" xmlns:cc="http://creativecommons.org/ns#" xmlns:rdf="http://www.w3.org/1999/02/22-rdf-syntax-ns#" xmlns:svg="http://www.w3.org/2000/svg" xmlns="http://www.w3.org/2000/svg" xmlns:sodipodi="http://sodipodi.sourceforge.net/DTD/sodipodi-0.dtd" xmlns:inkscape="http://www.inkscape.org/namespaces/inkscape" width="64px" height="64px" id="svg13564" version="1.1" inkscape:version="0.48.4 r9939" sodipodi:docname="line electric wave pulse resistance resist  1.svg">
  <defs id="defs13566"/>
  <sodipodi:namedview id="base" pagecolor="#ffffff" bordercolor="#666666" borderopacity="1.0" inkscape:pageopacity="0.0" inkscape:pageshadow="2" inkscape:zoom="5.6" inkscape:cx="42.579777" inkscape:cy="30.513039" inkscape:document-units="px" inkscape:current-layer="layer1" showgrid="false" inkscape:window-width="1366" inkscape:window-height="705" inkscape:window-x="-8" inkscape:window-y="-8" inkscape:window-maximized="1"/>
  
  <g inkscape:label="Layer 1" inkscape:groupmode="layer" id="layer1" transform="translate(0,-988.36218)">
    <path inkscape:connector-curvature="0" style="font-size:medium;font-style:normal;font-variant:normal;font-weight:normal;font-stretch:normal;text-indent:0;text-align:start;text-decoration:none;line-height:normal;letter-spacing:normal;word-spacing:normal;text-transform:none;direction:ltr;block-progression:tb;writing-mode:lr-tb;text-anchor:start;baseline-shift:baseline;color:#3366ff;fill:#3366ff;fill-opacity:1;stroke:none;stroke-width:1px;marker:none;visibility:visible;display:inline;overflow:visible;enable-background:accumulate;font-family:Sans;-inkscape-font-specification:Sans" d="m 27.21875,1012.2908 c -0.63005,0 -1.1901,0.2753 -1.65625,0.6875 -0.46615,0.4122 -0.85928,0.9569 -1.21875,1.5937 -0.71895,1.2737 -1.31667,2.9166 -1.96875,4.5313 -0.65208,1.6147 -1.34759,3.227 -2.1875,4.375 -0.83991,1.148 -1.77044,1.8125 -2.96875,1.8125 l -14.4375,0 a 0.50005,0.50005 0 1 0 0,1 l 14.4375,0 c 1.58681,0 2.80874,-0.9635 3.75,-2.25 0.94126,-1.2865 1.65369,-2.9311 2.3125,-4.5625 0.65881,-1.6314 1.28217,-3.2453 1.9375,-4.4063 0.32766,-0.5804 0.6631,-1.0458 1,-1.3437 0.3369,-0.2979 0.64439,-0.4375 1,-0.4375 0.7743,0 1.39924,0.501 2.03125,1.375 0.63201,0.874 1.20379,2.0978 1.75,3.3438 0.54621,1.2457 1.08631,2.5054 1.71875,3.5 0.63244,0.9945 1.42445,1.7812 2.5,1.7812 0.94885,0 1.69119,-0.3866 2.1875,-0.9375 0.49631,-0.5509 0.76831,-1.2094 1.03125,-1.8437 0.26294,-0.6345 0.50558,-1.2361 0.78125,-1.625 0.27567,-0.3892 0.52049,-0.5938 1,-0.5938 0.19106,0 0.30574,0.066 0.46875,0.2188 0.16301,0.153 0.36353,0.4049 0.53125,0.75 0.33544,0.6899 0.63744,1.6958 1.03125,2.7187 0.39381,1.0229 0.87773,2.0754 1.65625,2.9063 0.77852,0.8306 1.86782,1.4062 3.3125,1.4062 l 14,0 a 0.50005,0.50005 0 1 0 0,-1 l -14,0 c -1.19182,0 -1.96655,-0.4244 -2.59375,-1.0938 -0.6272,-0.6692 -1.09258,-1.5854 -1.46875,-2.5624 -0.37617,-0.9772 -0.66867,-2.0025 -1.0625,-2.8126 -0.19692,-0.4049 -0.41573,-0.7467 -0.71875,-1.0312 -0.30302,-0.2845 -0.70551,-0.5 -1.15625,-0.5 -0.80411,0 -1.42383,0.4515 -1.8125,1 -0.38867,0.5485 -0.61992,1.197 -0.875,1.8125 -0.25508,0.6155 -0.52664,1.2072 -0.875,1.5937 -0.34836,0.3868 -0.74205,0.5938 -1.4375,0.5938 -0.56875,0 -1.09642,-0.4321 -1.65625,-1.3125 -0.55983,-0.8804 -1.10637,-2.1208 -1.65625,-3.375 -0.54988,-1.2542 -1.11998,-2.5303 -1.84375,-3.5313 -0.72377,-1.0009 -1.64672,-1.7812 -2.84375,-1.7812 z" id="path5172-7"/>
  </g>

	
	
	<metadata>
		<rdf:RDF xmlns:rdf="http://www.w3.org/1999/02/22-rdf-syntax-ns#" xmlns:rdfs="http://www.w3.org/2000/01/rdf-schema#" xmlns:dc="http://purl.org/dc/elements/1.1/">
			<rdf:Description about="https://iconscout.com/legal#licenses" dc:title="Line, Electric, Wave, Pulse, Resistance, Resist" dc:description="Line, Electric, Wave, Pulse, Resistance, Resist" dc:publisher="Iconscout" dc:date="2016-12-14" dc:format="image/svg+xml" dc:language="en">
				<dc:creator>
					<rdf:Bag>
						<rdf:li>Chamestudio</rdf:li>
					</rdf:Bag>
				</dc:creator>
			</rdf:Description>
		</rdf:RDF>
    </metadata></svg>
